<svg xmlns="http://www.w3.org/2000/svg" xmlns:xlink="http://www.w3.org/1999/xlink" width="500" zoomAndPan="magnify" viewBox="0 0 375 374.999991" height="500" preserveAspectRatio="xMidYMid meet" version="1.0"><defs><g/><clipPath id="761e4377aa"><path d="M 114 104.417969 L 260 104.417969 L 260 191 L 114 191 Z M 114 104.417969 " clip-rule="nonzero"/></clipPath><clipPath id="ab1eaa22cb"><path d="M 160.261719 157.8125 C 163.492188 159.453125 166.777344 160.949219 170.09375 162.359375 C 177.246094 165.378906 184.65625 167.820312 192.179688 169.75 C 196.621094 170.898438 201.121094 171.933594 205.617188 172.855469 C 206.742188 169.460938 207.292969 165.867188 207.347656 162.328125 C 207.523438 151.660156 202.910156 139.984375 191.777344 135.355469 C 194.429688 133.601562 196.191406 130.609375 196.191406 127.1875 C 196.191406 124.945312 195.410156 122.84375 194.140625 121.207031 C 213.230469 126.871094 222.6875 144.558594 222.488281 162.070312 C 222.429688 166.558594 221.796875 171.070312 220.554688 175.355469 C 227.792969 176.074219 239.414062 176.105469 242.039062 170.296875 C 244.316406 165.203125 238 157.613281 234.800781 154.335938 L 232.148438 151.601562 L 237.222656 145.9375 L 240.25 148.238281 C 248.382812 154.449219 263.03125 167.074219 258.011719 178.953125 C 251.726562 193.847656 222.515625 191.71875 209.972656 189.046875 C 200.832031 187.089844 191.75 184.789062 182.839844 182.058594 C 182.347656 181.972656 181.886719 181.828125 181.484375 181.625 C 177.246094 180.304688 173.035156 178.863281 168.796875 177.285156 L 163.261719 175.125 C 149.792969 169.691406 134.25 161.695312 124.101562 151.085938 C 118.21875 144.929688 112.28125 135.554688 116.085938 126.8125 C 120.324219 116.949219 133.503906 115.453125 142.84375 116.03125 L 146.535156 116.257812 L 146.824219 123.648438 L 143.160156 124.167969 C 139.816406 124.65625 132.609375 126.125 131.367188 130.003906 C 129.898438 134.664062 135.925781 141.046875 141.632812 145.792969 C 146.96875 131.128906 159.859375 119.453125 180.5625 119.394531 C 178.167969 121.175781 176.609375 124.023438 176.609375 127.246094 C 176.609375 129.574219 177.417969 131.703125 178.800781 133.398438 C 164.441406 134.203125 156.859375 143.980469 154.636719 154.679688 L 156.28125 155.601562 Z M 153.3125 115.109375 C 155.273438 115.109375 156.859375 116.691406 156.859375 118.644531 C 156.859375 120.601562 155.273438 122.183594 153.3125 122.183594 C 151.351562 122.183594 149.765625 120.601562 149.765625 118.644531 C 149.765625 116.691406 151.351562 115.109375 153.3125 115.109375 Z M 182.347656 155.082031 C 182.839844 155.082031 183.242188 155.484375 183.242188 155.972656 C 183.242188 156.460938 182.839844 156.867188 182.347656 156.867188 C 181.859375 156.867188 181.453125 156.460938 181.453125 155.972656 C 181.453125 155.484375 181.859375 155.082031 182.347656 155.082031 Z M 167.789062 110.394531 C 168.277344 110.394531 168.679688 110.796875 168.679688 111.285156 C 168.679688 111.773438 168.277344 112.175781 167.789062 112.175781 C 167.296875 112.175781 166.894531 111.773438 166.894531 111.285156 C 166.894531 110.796875 167.296875 110.394531 167.789062 110.394531 Z M 146.535156 104.441406 C 147.027344 104.441406 147.429688 104.84375 147.429688 105.332031 C 147.429688 105.820312 147.027344 106.222656 146.535156 106.222656 C 146.046875 106.222656 145.640625 105.820312 145.640625 105.332031 C 145.640625 104.84375 146.046875 104.441406 146.535156 104.441406 Z M 222.34375 121.121094 C 223.957031 121.121094 225.253906 122.414062 225.253906 124.023438 C 225.253906 125.632812 223.957031 126.929688 222.34375 126.929688 C 220.726562 126.929688 219.429688 125.632812 219.429688 124.023438 C 219.429688 122.414062 220.757812 121.121094 222.34375 121.121094 Z M 230.707031 160.488281 C 232.320312 160.488281 233.617188 161.78125 233.617188 163.394531 C 233.617188 165.003906 232.320312 166.296875 230.707031 166.296875 C 229.089844 166.296875 227.792969 165.003906 227.792969 163.394531 C 227.820312 161.78125 229.121094 160.488281 230.707031 160.488281 Z M 171.707031 143.464844 C 174.363281 143.464844 176.496094 145.621094 176.496094 148.238281 C 176.496094 150.882812 174.363281 153.011719 171.707031 153.011719 C 169.054688 153.011719 166.921875 150.855469 166.921875 148.238281 C 166.921875 145.621094 169.085938 143.464844 171.707031 143.464844 Z M 189.703125 145.046875 C 191.316406 145.046875 192.613281 146.339844 192.613281 147.949219 C 192.613281 149.5625 191.316406 150.855469 189.703125 150.855469 C 188.085938 150.855469 186.789062 149.5625 186.789062 147.949219 C 186.789062 146.339844 188.085938 145.046875 189.703125 145.046875 Z M 226.4375 137.800781 C 226.929688 137.800781 227.332031 138.203125 227.332031 138.691406 C 227.332031 139.179688 226.929688 139.582031 226.4375 139.582031 C 225.949219 139.582031 225.542969 139.179688 225.542969 138.691406 C 225.542969 138.203125 225.949219 137.800781 226.4375 137.800781 Z M 189.757812 111.398438 C 190.738281 111.398438 191.546875 112.203125 191.546875 113.183594 C 191.546875 114.160156 190.738281 114.964844 189.757812 114.964844 C 188.777344 114.964844 187.972656 114.160156 187.972656 113.183594 C 187.972656 112.203125 188.777344 111.398438 189.757812 111.398438 Z M 186.414062 133.832031 C 190.046875 133.832031 193.019531 130.898438 193.019531 127.246094 C 193.019531 123.621094 190.046875 120.660156 186.414062 120.660156 C 182.78125 120.660156 179.8125 123.621094 179.8125 127.246094 C 179.8125 130.867188 182.753906 133.832031 186.414062 133.832031 Z M 186.414062 133.832031 " clip-rule="nonzero"/></clipPath><linearGradient x1="78014.415011" gradientTransform="matrix(0.00491351, 0, 0, -0.00490031, -193.407921, -112.222557)" y1="-63451.356619" x2="76667.668091" gradientUnits="userSpaceOnUse" y2="-43250.644768" id="cbffce10ce"><stop stop-opacity="1" stop-color="rgb(0%, 21.598816%, 72.198486%)" offset="0"/><stop stop-opacity="1" stop-color="rgb(0%, 21.598816%, 72.198486%)" offset="0.0625"/><stop stop-opacity="1" stop-color="rgb(0%, 21.598816%, 72.198486%)" offset="0.09375"/><stop stop-opacity="1" stop-color="rgb(0%, 21.598816%, 72.198486%)" offset="0.100796"/><stop stop-opacity="1" stop-color="rgb(0%, 21.598816%, 72.198486%)" offset="0.109375"/><stop stop-opacity="1" stop-color="rgb(0%, 21.598816%, 72.198486%)" offset="0.117187"/><stop stop-opacity="1" stop-color="rgb(0.146484%, 21.829224%, 72.271729%)" offset="0.121094"/><stop stop-opacity="1" stop-color="rgb(0.292969%, 22.061157%, 72.344971%)" offset="0.125"/><stop stop-opacity="1" stop-color="rgb(0.483704%, 22.361755%, 72.439575%)" offset="0.128906"/><stop stop-opacity="1" stop-color="rgb(0.674438%, 22.663879%, 72.53418%)" offset="0.132812"/><stop stop-opacity="1" stop-color="rgb(0.865173%, 22.964478%, 72.628784%)" offset="0.136719"/><stop stop-opacity="1" stop-color="rgb(1.057434%, 23.265076%, 72.723389%)" offset="0.140625"/><stop stop-opacity="1" stop-color="rgb(1.248169%, 23.565674%, 72.817993%)" offset="0.144531"/><stop stop-opacity="1" stop-color="rgb(1.44043%, 23.867798%, 72.912598%)" offset="0.148438"/><stop stop-opacity="1" stop-color="rgb(1.631165%, 24.168396%, 73.007202%)" offset="0.152344"/><stop stop-opacity="1" stop-color="rgb(1.821899%, 24.47052%, 73.101807%)" offset="0.15625"/><stop stop-opacity="1" stop-color="rgb(2.012634%, 24.771118%, 73.196411%)" offset="0.160156"/><stop stop-opacity="1" stop-color="rgb(2.204895%, 25.071716%, 73.291016%)" offset="0.164062"/><stop stop-opacity="1" stop-color="rgb(2.39563%, 25.372314%, 73.38562%)" offset="0.167969"/><stop stop-opacity="1" stop-color="rgb(2.586365%, 25.674438%, 73.480225%)" offset="0.171875"/><stop stop-opacity="1" stop-color="rgb(2.7771%, 25.975037%, 73.574829%)" offset="0.175781"/><stop stop-opacity="1" stop-color="rgb(2.96936%, 26.275635%, 73.669434%)" offset="0.179688"/><stop stop-opacity="1" stop-color="rgb(3.160095%, 26.576233%, 73.764038%)" offset="0.183594"/><stop stop-opacity="1" stop-color="rgb(3.352356%, 26.878357%, 73.858643%)" offset="0.1875"/><stop stop-opacity="1" stop-color="rgb(3.543091%, 27.178955%, 73.953247%)" offset="0.191406"/><stop stop-opacity="1" stop-color="rgb(3.733826%, 27.481079%, 74.047852%)" offset="0.195312"/><stop stop-opacity="1" stop-color="rgb(3.924561%, 27.781677%, 74.142456%)" offset="0.199219"/><stop stop-opacity="1" stop-color="rgb(4.116821%, 28.082275%, 74.237061%)" offset="0.203125"/><stop stop-opacity="1" stop-color="rgb(4.307556%, 28.382874%, 74.331665%)" offset="0.207031"/><stop stop-opacity="1" stop-color="rgb(4.498291%, 28.684998%, 74.42627%)" offset="0.210937"/><stop stop-opacity="1" stop-color="rgb(4.689026%, 28.985596%, 74.520874%)" offset="0.214844"/><stop stop-opacity="1" stop-color="rgb(4.881287%, 29.286194%, 74.615479%)" offset="0.21875"/><stop stop-opacity="1" stop-color="rgb(5.072021%, 29.586792%, 74.710083%)" offset="0.222656"/><stop stop-opacity="1" stop-color="rgb(5.262756%, 29.888916%, 74.804688%)" offset="0.226562"/><stop stop-opacity="1" stop-color="rgb(5.453491%, 30.189514%, 74.899292%)" offset="0.230469"/><stop stop-opacity="1" stop-color="rgb(5.645752%, 30.491638%, 74.993896%)" offset="0.234375"/><stop stop-opacity="1" stop-color="rgb(5.836487%, 30.792236%, 75.088501%)" offset="0.238281"/><stop stop-opacity="1" stop-color="rgb(6.028748%, 31.092834%, 75.183105%)" offset="0.242188"/><stop stop-opacity="1" stop-color="rgb(6.219482%, 31.393433%, 75.27771%)" offset="0.246094"/><stop stop-opacity="1" stop-color="rgb(6.410217%, 31.695557%, 75.372314%)" offset="0.25"/><stop stop-opacity="1" stop-color="rgb(6.600952%, 31.996155%, 75.466919%)" offset="0.253906"/><stop stop-opacity="1" stop-color="rgb(6.793213%, 32.296753%, 75.561523%)" offset="0.257812"/><stop stop-opacity="1" stop-color="rgb(6.983948%, 32.597351%, 75.656128%)" offset="0.261719"/><stop stop-opacity="1" stop-color="rgb(7.174683%, 32.899475%, 75.750732%)" offset="0.265625"/><stop stop-opacity="1" stop-color="rgb(7.365417%, 33.200073%, 75.845337%)" offset="0.269531"/><stop stop-opacity="1" stop-color="rgb(7.557678%, 33.502197%, 75.939941%)" offset="0.273437"/><stop stop-opacity="1" stop-color="rgb(7.748413%, 33.802795%, 76.034546%)" offset="0.277344"/><stop stop-opacity="1" stop-color="rgb(7.940674%, 34.103394%, 76.12915%)" offset="0.28125"/><stop stop-opacity="1" stop-color="rgb(8.131409%, 34.403992%, 76.223755%)" offset="0.285156"/><stop stop-opacity="1" stop-color="rgb(8.322144%, 34.706116%, 76.318359%)" offset="0.289062"/><stop stop-opacity="1" stop-color="rgb(8.512878%, 35.006714%, 76.412964%)" offset="0.292969"/><stop stop-opacity="1" stop-color="rgb(8.705139%, 35.307312%, 76.507568%)" offset="0.296875"/><stop stop-opacity="1" stop-color="rgb(8.895874%, 35.60791%, 76.602173%)" offset="0.300781"/><stop stop-opacity="1" stop-color="rgb(9.086609%, 35.910034%, 76.696777%)" offset="0.304688"/><stop stop-opacity="1" stop-color="rgb(9.277344%, 36.210632%, 76.791382%)" offset="0.308594"/><stop stop-opacity="1" stop-color="rgb(9.469604%, 36.512756%, 76.885986%)" offset="0.3125"/><stop stop-opacity="1" stop-color="rgb(9.660339%, 36.813354%, 76.980591%)" offset="0.316406"/><stop stop-opacity="1" stop-color="rgb(9.851074%, 37.113953%, 77.075195%)" offset="0.320312"/><stop stop-opacity="1" stop-color="rgb(10.041809%, 37.414551%, 77.1698%)" offset="0.324219"/><stop stop-opacity="1" stop-color="rgb(10.23407%, 37.716675%, 77.264404%)" offset="0.328125"/><stop stop-opacity="1" stop-color="rgb(10.424805%, 38.017273%, 77.359009%)" offset="0.332031"/><stop stop-opacity="1" stop-color="rgb(10.617065%, 38.319397%, 77.453613%)" offset="0.335938"/><stop stop-opacity="1" stop-color="rgb(10.8078%, 38.619995%, 77.548218%)" offset="0.339844"/><stop stop-opacity="1" stop-color="rgb(10.998535%, 38.920593%, 77.642822%)" offset="0.34375"/><stop stop-opacity="1" stop-color="rgb(11.18927%, 39.221191%, 77.737427%)" offset="0.347656"/><stop stop-opacity="1" stop-color="rgb(11.381531%, 39.523315%, 77.832031%)" offset="0.351562"/><stop stop-opacity="1" stop-color="rgb(11.572266%, 39.823914%, 77.926636%)" offset="0.355469"/><stop stop-opacity="1" stop-color="rgb(11.763%, 40.124512%, 78.02124%)" offset="0.359375"/><stop stop-opacity="1" stop-color="rgb(11.953735%, 40.42511%, 78.115845%)" offset="0.363281"/><stop stop-opacity="1" stop-color="rgb(12.145996%, 40.727234%, 78.210449%)" offset="0.367188"/><stop stop-opacity="1" stop-color="rgb(12.336731%, 41.027832%, 78.305054%)" offset="0.371094"/><stop stop-opacity="1" stop-color="rgb(12.528992%, 41.329956%, 78.399658%)" offset="0.375"/><stop stop-opacity="1" stop-color="rgb(12.719727%, 41.630554%, 78.494263%)" offset="0.378906"/><stop stop-opacity="1" stop-color="rgb(12.910461%, 41.931152%, 78.588867%)" offset="0.382812"/><stop stop-opacity="1" stop-color="rgb(13.101196%, 42.23175%, 78.683472%)" offset="0.386719"/><stop stop-opacity="1" stop-color="rgb(13.293457%, 42.533875%, 78.778076%)" offset="0.390625"/><stop stop-opacity="1" stop-color="rgb(13.484192%, 42.834473%, 78.872681%)" offset="0.394531"/><stop stop-opacity="1" stop-color="rgb(13.674927%, 43.135071%, 78.967285%)" offset="0.398438"/><stop stop-opacity="1" stop-color="rgb(13.865662%, 43.435669%, 79.06189%)" offset="0.402344"/><stop stop-opacity="1" stop-color="rgb(14.057922%, 43.737793%, 79.156494%)" offset="0.40625"/><stop stop-opacity="1" stop-color="rgb(14.248657%, 44.038391%, 79.251099%)" offset="0.410156"/><stop stop-opacity="1" stop-color="rgb(14.439392%, 44.340515%, 79.345703%)" offset="0.414062"/><stop stop-opacity="1" stop-color="rgb(14.630127%, 44.641113%, 79.440308%)" offset="0.417969"/><stop stop-opacity="1" stop-color="rgb(14.822388%, 44.941711%, 79.534912%)" offset="0.421875"/><stop stop-opacity="1" stop-color="rgb(15.013123%, 45.24231%, 79.629517%)" offset="0.425781"/><stop stop-opacity="1" stop-color="rgb(15.205383%, 45.544434%, 79.724121%)" offset="0.429687"/><stop stop-opacity="1" stop-color="rgb(15.396118%, 45.845032%, 79.818726%)" offset="0.433594"/><stop stop-opacity="1" stop-color="rgb(15.586853%, 46.14563%, 79.91333%)" offset="0.4375"/><stop stop-opacity="1" stop-color="rgb(15.777588%, 46.446228%, 80.007935%)" offset="0.441406"/><stop stop-opacity="1" stop-color="rgb(15.969849%, 46.748352%, 80.102539%)" offset="0.445312"/><stop stop-opacity="1" stop-color="rgb(16.160583%, 47.04895%, 80.197144%)" offset="0.449219"/><stop stop-opacity="1" stop-color="rgb(16.351318%, 47.351074%, 80.291748%)" offset="0.453125"/><stop stop-opacity="1" stop-color="rgb(16.542053%, 47.651672%, 80.386353%)" offset="0.457031"/><stop stop-opacity="1" stop-color="rgb(16.734314%, 47.952271%, 80.480957%)" offset="0.460938"/><stop stop-opacity="1" stop-color="rgb(16.925049%, 48.252869%, 80.575562%)" offset="0.464844"/><stop stop-opacity="1" stop-color="rgb(17.11731%, 48.554993%, 80.670166%)" offset="0.46875"/><stop stop-opacity="1" stop-color="rgb(17.308044%, 48.855591%, 80.764771%)" offset="0.472656"/><stop stop-opacity="1" stop-color="rgb(17.498779%, 49.156189%, 80.859375%)" offset="0.476562"/><stop stop-opacity="1" stop-color="rgb(17.689514%, 49.456787%, 80.953979%)" offset="0.480469"/><stop stop-opacity="1" stop-color="rgb(17.881775%, 49.758911%, 81.048584%)" offset="0.484375"/><stop stop-opacity="1" stop-color="rgb(18.07251%, 50.059509%, 81.143188%)" offset="0.488281"/><stop stop-opacity="1" stop-color="rgb(18.263245%, 50.361633%, 81.237793%)" offset="0.492188"/><stop stop-opacity="1" stop-color="rgb(18.453979%, 50.662231%, 81.332397%)" offset="0.496094"/><stop stop-opacity="1" stop-color="rgb(18.64624%, 50.96283%, 81.427002%)" offset="0.5"/><stop stop-opacity="1" stop-color="rgb(18.836975%, 51.263428%, 81.521606%)" offset="0.503906"/><stop stop-opacity="1" stop-color="rgb(19.02771%, 51.565552%, 81.616211%)" offset="0.507812"/><stop stop-opacity="1" stop-color="rgb(19.218445%, 51.86615%, 81.710815%)" offset="0.511719"/><stop stop-opacity="1" stop-color="rgb(19.410706%, 52.166748%, 81.80542%)" offset="0.515625"/><stop stop-opacity="1" stop-color="rgb(19.60144%, 52.467346%, 81.900024%)" offset="0.519531"/><stop stop-opacity="1" stop-color="rgb(19.793701%, 52.76947%, 81.994629%)" offset="0.523438"/><stop stop-opacity="1" stop-color="rgb(19.984436%, 53.070068%, 82.089233%)" offset="0.527344"/><stop stop-opacity="1" stop-color="rgb(20.175171%, 53.372192%, 82.183838%)" offset="0.53125"/><stop stop-opacity="1" stop-color="rgb(20.365906%, 53.672791%, 82.278442%)" offset="0.535156"/><stop stop-opacity="1" stop-color="rgb(20.558167%, 53.973389%, 82.373047%)" offset="0.539063"/><stop stop-opacity="1" stop-color="rgb(20.748901%, 54.273987%, 82.467651%)" offset="0.542969"/><stop stop-opacity="1" stop-color="rgb(20.939636%, 54.576111%, 82.562256%)" offset="0.546875"/><stop stop-opacity="1" stop-color="rgb(21.130371%, 54.876709%, 82.65686%)" offset="0.550781"/><stop stop-opacity="1" stop-color="rgb(21.322632%, 55.177307%, 82.751465%)" offset="0.554688"/><stop stop-opacity="1" stop-color="rgb(21.513367%, 55.477905%, 82.846069%)" offset="0.558594"/><stop stop-opacity="1" stop-color="rgb(21.705627%, 55.780029%, 82.940674%)" offset="0.5625"/><stop stop-opacity="1" stop-color="rgb(21.896362%, 56.080627%, 83.035278%)" offset="0.566406"/><stop stop-opacity="1" stop-color="rgb(22.087097%, 56.382751%, 83.129883%)" offset="0.570312"/><stop stop-opacity="1" stop-color="rgb(22.277832%, 56.68335%, 83.224487%)" offset="0.574219"/><stop stop-opacity="1" stop-color="rgb(22.470093%, 56.983948%, 83.319092%)" offset="0.578125"/><stop stop-opacity="1" stop-color="rgb(22.660828%, 57.284546%, 83.413696%)" offset="0.582031"/><stop stop-opacity="1" stop-color="rgb(22.851562%, 57.58667%, 83.508301%)" offset="0.585938"/><stop stop-opacity="1" stop-color="rgb(23.042297%, 57.887268%, 83.602905%)" offset="0.589844"/><stop stop-opacity="1" stop-color="rgb(23.234558%, 58.187866%, 83.69751%)" offset="0.59375"/><stop stop-opacity="1" stop-color="rgb(23.425293%, 58.488464%, 83.792114%)" offset="0.597656"/><stop stop-opacity="1" stop-color="rgb(23.616028%, 58.790588%, 83.886719%)" offset="0.601562"/><stop stop-opacity="1" stop-color="rgb(23.806763%, 59.091187%, 83.981323%)" offset="0.605469"/><stop stop-opacity="1" stop-color="rgb(23.999023%, 59.393311%, 84.075928%)" offset="0.609375"/><stop stop-opacity="1" stop-color="rgb(24.189758%, 59.693909%, 84.170532%)" offset="0.613281"/><stop stop-opacity="1" stop-color="rgb(24.382019%, 59.994507%, 84.265137%)" offset="0.617188"/><stop stop-opacity="1" stop-color="rgb(24.572754%, 60.295105%, 84.359741%)" offset="0.621094"/><stop stop-opacity="1" stop-color="rgb(24.763489%, 60.597229%, 84.454346%)" offset="0.625"/><stop stop-opacity="1" stop-color="rgb(24.954224%, 60.897827%, 84.54895%)" offset="0.628906"/><stop stop-opacity="1" stop-color="rgb(25.146484%, 61.199951%, 84.643555%)" offset="0.632813"/><stop stop-opacity="1" stop-color="rgb(25.337219%, 61.500549%, 84.738159%)" offset="0.636719"/><stop stop-opacity="1" stop-color="rgb(25.527954%, 61.801147%, 84.832764%)" offset="0.640625"/><stop stop-opacity="1" stop-color="rgb(25.718689%, 62.101746%, 84.927368%)" offset="0.644531"/><stop stop-opacity="1" stop-color="rgb(25.91095%, 62.40387%, 85.021973%)" offset="0.648438"/><stop stop-opacity="1" stop-color="rgb(26.101685%, 62.704468%, 85.116577%)" offset="0.652344"/><stop stop-opacity="1" stop-color="rgb(26.293945%, 63.005066%, 85.211182%)" offset="0.65625"/><stop stop-opacity="1" stop-color="rgb(26.48468%, 63.305664%, 85.305786%)" offset="0.660156"/><stop stop-opacity="1" stop-color="rgb(26.675415%, 63.607788%, 85.400391%)" offset="0.664062"/><stop stop-opacity="1" stop-color="rgb(26.86615%, 63.908386%, 85.494995%)" offset="0.667969"/><stop stop-opacity="1" stop-color="rgb(27.058411%, 64.21051%, 85.5896%)" offset="0.671875"/><stop stop-opacity="1" stop-color="rgb(27.249146%, 64.511108%, 85.684204%)" offset="0.675781"/><stop stop-opacity="1" stop-color="rgb(27.43988%, 64.811707%, 85.778809%)" offset="0.679688"/><stop stop-opacity="1" stop-color="rgb(27.630615%, 65.112305%, 85.873413%)" offset="0.683594"/><stop stop-opacity="1" stop-color="rgb(27.822876%, 65.414429%, 85.968018%)" offset="0.6875"/><stop stop-opacity="1" stop-color="rgb(28.013611%, 65.715027%, 86.062622%)" offset="0.691406"/><stop stop-opacity="1" stop-color="rgb(28.204346%, 66.015625%, 86.157227%)" offset="0.695312"/><stop stop-opacity="1" stop-color="rgb(28.395081%, 66.316223%, 86.251831%)" offset="0.699219"/><stop stop-opacity="1" stop-color="rgb(28.587341%, 66.618347%, 86.346436%)" offset="0.703125"/><stop stop-opacity="1" stop-color="rgb(28.778076%, 66.918945%, 86.44104%)" offset="0.707031"/><stop stop-opacity="1" stop-color="rgb(28.970337%, 67.221069%, 86.535645%)" offset="0.710938"/><stop stop-opacity="1" stop-color="rgb(29.161072%, 67.521667%, 86.630249%)" offset="0.714844"/><stop stop-opacity="1" stop-color="rgb(29.351807%, 67.822266%, 86.724854%)" offset="0.71875"/><stop stop-opacity="1" stop-color="rgb(29.542542%, 68.122864%, 86.819458%)" offset="0.722656"/><stop stop-opacity="1" stop-color="rgb(29.734802%, 68.424988%, 86.914062%)" offset="0.726562"/><stop stop-opacity="1" stop-color="rgb(29.925537%, 68.725586%, 87.008667%)" offset="0.730469"/><stop stop-opacity="1" stop-color="rgb(30.116272%, 69.026184%, 87.103271%)" offset="0.734375"/><stop stop-opacity="1" stop-color="rgb(30.307007%, 69.326782%, 87.197876%)" offset="0.738281"/><stop stop-opacity="1" stop-color="rgb(30.499268%, 69.628906%, 87.29248%)" offset="0.742188"/><stop stop-opacity="1" stop-color="rgb(30.690002%, 69.929504%, 87.387085%)" offset="0.746094"/><stop stop-opacity="1" stop-color="rgb(30.882263%, 70.231628%, 87.481689%)" offset="0.75"/><stop stop-opacity="1" stop-color="rgb(31.072998%, 70.532227%, 87.576294%)" offset="0.753906"/><stop stop-opacity="1" stop-color="rgb(31.263733%, 70.832825%, 87.670898%)" offset="0.757812"/><stop stop-opacity="1" stop-color="rgb(31.454468%, 71.133423%, 87.765503%)" offset="0.761719"/><stop stop-opacity="1" stop-color="rgb(31.646729%, 71.435547%, 87.860107%)" offset="0.765625"/><stop stop-opacity="1" stop-color="rgb(31.837463%, 71.736145%, 87.954712%)" offset="0.769531"/><stop stop-opacity="1" stop-color="rgb(32.028198%, 72.036743%, 88.049316%)" offset="0.773438"/><stop stop-opacity="1" stop-color="rgb(32.218933%, 72.337341%, 88.143921%)" offset="0.777344"/><stop stop-opacity="1" stop-color="rgb(32.411194%, 72.639465%, 88.238525%)" offset="0.78125"/><stop stop-opacity="1" stop-color="rgb(32.601929%, 72.940063%, 88.33313%)" offset="0.785156"/><stop stop-opacity="1" stop-color="rgb(32.792664%, 73.242188%, 88.427734%)" offset="0.789062"/><stop stop-opacity="1" stop-color="rgb(32.983398%, 73.542786%, 88.522339%)" offset="0.792969"/><stop stop-opacity="1" stop-color="rgb(33.175659%, 73.843384%, 88.616943%)" offset="0.796875"/><stop stop-opacity="1" stop-color="rgb(33.366394%, 74.143982%, 88.711548%)" offset="0.800781"/><stop stop-opacity="1" stop-color="rgb(33.558655%, 74.446106%, 88.806152%)" offset="0.804688"/><stop stop-opacity="1" stop-color="rgb(33.74939%, 74.746704%, 88.900757%)" offset="0.808594"/><stop stop-opacity="1" stop-color="rgb(33.940125%, 75.047302%, 88.995361%)" offset="0.8125"/><stop stop-opacity="1" stop-color="rgb(34.130859%, 75.3479%, 89.089966%)" offset="0.816406"/><stop stop-opacity="1" stop-color="rgb(34.32312%, 75.650024%, 89.18457%)" offset="0.820312"/><stop stop-opacity="1" stop-color="rgb(34.513855%, 75.950623%, 89.279175%)" offset="0.824219"/><stop stop-opacity="1" stop-color="rgb(34.70459%, 76.252747%, 89.373779%)" offset="0.828125"/><stop stop-opacity="1" stop-color="rgb(34.895325%, 76.553345%, 89.468384%)" offset="0.832031"/><stop stop-opacity="1" stop-color="rgb(35.087585%, 76.853943%, 89.562988%)" offset="0.835938"/><stop stop-opacity="1" stop-color="rgb(35.27832%, 77.154541%, 89.657593%)" offset="0.839844"/><stop stop-opacity="1" stop-color="rgb(35.470581%, 77.456665%, 89.752197%)" offset="0.84375"/><stop stop-opacity="1" stop-color="rgb(35.661316%, 77.757263%, 89.846802%)" offset="0.847656"/><stop stop-opacity="1" stop-color="rgb(35.852051%, 78.057861%, 89.941406%)" offset="0.851562"/><stop stop-opacity="1" stop-color="rgb(36.042786%, 78.358459%, 90.036011%)" offset="0.855469"/><stop stop-opacity="1" stop-color="rgb(36.235046%, 78.660583%, 90.130615%)" offset="0.859375"/><stop stop-opacity="1" stop-color="rgb(36.425781%, 78.961182%, 90.22522%)" offset="0.863281"/><stop stop-opacity="1" stop-color="rgb(36.616516%, 79.263306%, 90.319824%)" offset="0.867187"/><stop stop-opacity="1" stop-color="rgb(36.807251%, 79.563904%, 90.414429%)" offset="0.871094"/><stop stop-opacity="1" stop-color="rgb(36.999512%, 79.864502%, 90.509033%)" offset="0.875"/><stop stop-opacity="1" stop-color="rgb(37.190247%, 80.1651%, 90.603638%)" offset="0.878906"/><stop stop-opacity="1" stop-color="rgb(37.380981%, 80.467224%, 90.698242%)" offset="0.882812"/><stop stop-opacity="1" stop-color="rgb(37.571716%, 80.767822%, 90.792847%)" offset="0.886719"/><stop stop-opacity="1" stop-color="rgb(37.763977%, 81.06842%, 90.887451%)" offset="0.890625"/><stop stop-opacity="1" stop-color="rgb(37.954712%, 81.369019%, 90.982056%)" offset="0.894531"/><stop stop-opacity="1" stop-color="rgb(38.146973%, 81.671143%, 91.07666%)" offset="0.898438"/><stop stop-opacity="1" stop-color="rgb(38.337708%, 81.971741%, 91.171265%)" offset="0.902344"/><stop stop-opacity="1" stop-color="rgb(38.528442%, 82.273865%, 91.265869%)" offset="0.90625"/><stop stop-opacity="1" stop-color="rgb(38.66272%, 82.485962%, 91.331482%)" offset="0.910156"/><stop stop-opacity="1" stop-color="rgb(38.798523%, 82.699585%, 91.398621%)" offset="0.914062"/><stop stop-opacity="1" stop-color="rgb(38.798523%, 82.699585%, 91.398621%)" offset="0.921875"/><stop stop-opacity="1" stop-color="rgb(38.798523%, 82.699585%, 91.398621%)" offset="0.9375"/><stop stop-opacity="1" stop-color="rgb(38.798523%, 82.699585%, 91.398621%)" offset="1"/></linearGradient><clipPath id="4c7d09e575"><path d="M 139 168 L 211 168 L 211 204.167969 L 139 204.167969 Z M 139 168 " clip-rule="nonzero"/></clipPath></defs><g clip-path="url(#761e4377aa)"><g clip-path="url(#ab1eaa22cb)"><path fill="url(#cbffce10ce)" d="M 112.296875 193.847656 L 112.296875 104.441406 L 263.03125 104.441406 L 263.03125 193.847656 Z M 112.296875 193.847656 " fill-rule="nonzero"/></g></g><g clip-path="url(#4c7d09e575)"><path fill="#001d46" d="M 139.152344 168.339844 C 141.460938 187.347656 154.8125 204.144531 180.707031 204.144531 C 193.738281 204.144531 203.515625 199.800781 210.320312 193.070312 C 209.050781 192.871094 207.867188 192.640625 206.800781 192.410156 C 201.378906 191.257812 195.988281 189.964844 190.625 188.554688 C 187.742188 189.535156 184.453125 190.082031 180.707031 190.082031 C 168.941406 190.082031 161.675781 184.730469 157.722656 177.511719 C 151.640625 174.984375 145.238281 171.90625 139.152344 168.339844 Z M 139.152344 168.339844 " fill-opacity="1" fill-rule="nonzero"/></g><g fill="#001d46" fill-opacity="1"><g transform="translate(46.931251, 243.60057)"><g><path d="M 17.136719 0 L 22.332031 0 L 13.417969 -22.050781 L 8.914062 -22.050781 L 0.253906 0 L 5.324219 0 L 6.835938 -4.15625 L 15.59375 -4.15625 Z M 11.214844 -16.222656 L 14.113281 -8.316406 L 8.316406 -8.316406 Z M 11.214844 -16.222656 "/></g></g></g><g fill="#001d46" fill-opacity="1"><g transform="translate(75.848278, 243.60057)"><g><path d="M 9.828125 0.441406 C 14.394531 0.441406 18.175781 -1.859375 18.175781 -6.613281 C 18.175781 -11.558594 13.953125 -12.601562 10.617188 -13.449219 C 8.253906 -14.015625 6.363281 -14.488281 6.363281 -16.035156 C 6.363281 -17.484375 7.90625 -18.144531 9.449219 -18.144531 C 11.246094 -18.144531 12.820312 -17.261719 12.820312 -15.339844 L 17.515625 -15.339844 C 17.515625 -19.75 14.648438 -22.460938 9.574219 -22.460938 C 4.695312 -22.460938 1.574219 -20.066406 1.574219 -15.84375 C 1.574219 -11.089844 5.605469 -10.113281 8.945312 -9.292969 C 11.339844 -8.757812 13.355469 -8.285156 13.355469 -6.550781 C 13.355469 -4.914062 11.59375 -3.96875 9.796875 -3.96875 C 7.84375 -3.96875 6.078125 -5.007812 6.078125 -7.117188 L 1.261719 -7.117188 C 1.261719 -2.394531 4.757812 0.441406 9.828125 0.441406 Z M 9.828125 0.441406 "/></g></g></g><g fill="#001d46" fill-opacity="1"><g transform="translate(101.646801, 243.60057)"><g><path d="M 17.703125 -22.050781 L 0.660156 -22.050781 L 0.660156 -17.609375 L 6.804688 -17.609375 L 6.804688 0 L 11.558594 0 L 11.558594 -17.609375 L 17.703125 -17.609375 Z M 17.703125 -22.050781 "/></g></g></g><g fill="#001d46" fill-opacity="1"><g transform="translate(126.342823, 243.60057)"><g><path d="M 14.648438 0 L 19.972656 0 L 15.089844 -8.316406 C 17.546875 -9.511719 19.121094 -11.84375 19.121094 -14.742188 C 19.121094 -18.996094 15.8125 -22.050781 11.402344 -22.050781 L 2.519531 -22.050781 L 2.519531 0 L 7.277344 0 L 7.277344 -7.496094 L 10.332031 -7.496094 Z M 7.277344 -17.640625 L 11.089844 -17.640625 C 13.105469 -17.640625 14.269531 -16.410156 14.269531 -14.773438 C 14.269531 -13.105469 13.105469 -11.90625 11.089844 -11.90625 L 7.277344 -11.90625 Z M 7.277344 -17.640625 "/></g></g></g><g fill="#001d46" fill-opacity="1"><g transform="translate(153.464352, 243.60057)"><g><path d="M 12.976562 0.503906 C 19.6875 0.503906 24.695312 -4.441406 24.695312 -11.023438 C 24.695312 -17.578125 19.6875 -22.523438 12.976562 -22.523438 C 6.238281 -22.523438 1.195312 -17.546875 1.195312 -11.023438 C 1.195312 -4.472656 6.238281 0.503906 12.976562 0.503906 Z M 12.976562 -4 C 9.039062 -4 6.046875 -7.054688 6.046875 -11.023438 C 6.046875 -14.992188 9.039062 -18.019531 12.976562 -18.019531 C 16.914062 -18.019531 19.84375 -15.027344 19.84375 -11.023438 C 19.84375 -7.023438 16.914062 -4 12.976562 -4 Z M 12.976562 -4 "/></g></g></g><g fill="#001d46" fill-opacity="1"><g transform="translate(185.688887, 243.60057)"><g><path d="M 16.507812 -22.050781 L 11.089844 -6.457031 L 5.511719 -22.050781 L 0.253906 -22.050781 L 8.851562 0 L 13.355469 0 L 21.703125 -22.050781 Z M 16.507812 -22.050781 "/></g></g></g><g fill="#001d46" fill-opacity="1"><g transform="translate(214.10191, 243.60057)"><g><path d="M 2.519531 0 L 7.277344 0 L 7.277344 -22.050781 L 2.519531 -22.050781 Z M 2.519531 0 "/></g></g></g><g fill="#001d46" fill-opacity="1"><g transform="translate(230.229919, 243.60057)"><g><path d="M 9.828125 0.441406 C 14.394531 0.441406 18.175781 -1.859375 18.175781 -6.613281 C 18.175781 -11.558594 13.953125 -12.601562 10.617188 -13.449219 C 8.253906 -14.015625 6.363281 -14.488281 6.363281 -16.035156 C 6.363281 -17.484375 7.90625 -18.144531 9.449219 -18.144531 C 11.246094 -18.144531 12.820312 -17.261719 12.820312 -15.339844 L 17.515625 -15.339844 C 17.515625 -19.75 14.648438 -22.460938 9.574219 -22.460938 C 4.695312 -22.460938 1.574219 -20.066406 1.574219 -15.84375 C 1.574219 -11.089844 5.605469 -10.113281 8.945312 -9.292969 C 11.339844 -8.757812 13.355469 -8.285156 13.355469 -6.550781 C 13.355469 -4.914062 11.59375 -3.96875 9.796875 -3.96875 C 7.84375 -3.96875 6.078125 -5.007812 6.078125 -7.117188 L 1.261719 -7.117188 C 1.261719 -2.394531 4.757812 0.441406 9.828125 0.441406 Z M 9.828125 0.441406 "/></g></g></g><g fill="#001d46" fill-opacity="1"><g transform="translate(256.028436, 243.60057)"><g><path d="M 2.519531 0 L 7.277344 0 L 7.277344 -22.050781 L 2.519531 -22.050781 Z M 2.519531 0 "/></g></g></g><g fill="#001d46" fill-opacity="1"><g transform="translate(272.156456, 243.60057)"><g><path d="M 12.976562 0.503906 C 19.6875 0.503906 24.695312 -4.441406 24.695312 -11.023438 C 24.695312 -17.578125 19.6875 -22.523438 12.976562 -22.523438 C 6.238281 -22.523438 1.195312 -17.546875 1.195312 -11.023438 C 1.195312 -4.472656 6.238281 0.503906 12.976562 0.503906 Z M 12.976562 -4 C 9.039062 -4 6.046875 -7.054688 6.046875 -11.023438 C 6.046875 -14.992188 9.039062 -18.019531 12.976562 -18.019531 C 16.914062 -18.019531 19.84375 -15.027344 19.84375 -11.023438 C 19.84375 -7.023438 16.914062 -4 12.976562 -4 Z M 12.976562 -4 "/></g></g></g><g fill="#001d46" fill-opacity="1"><g transform="translate(304.38098, 243.60057)"><g><path d="M 16.472656 -22.050781 L 16.472656 -8.597656 L 6.804688 -22.050781 L 2.519531 -22.050781 L 2.519531 0 L 7.183594 0 L 7.183594 -13.765625 L 17.167969 0 L 21.167969 0 L 21.167969 -22.050781 Z M 16.472656 -22.050781 "/></g></g></g></svg>